<svg xmlns="http://www.w3.org/2000/svg" viewBox="0 0 291.98 272"><title>people</title><g id="Layer_2" data-name="Layer 2"><g id="Layer_1-2" data-name="Layer 1"><path d="M180,177v5c0-1.68-.05-3.35-.14-5Z" fill="none" stroke="#0f1adb" stroke-miterlimit="10" fill-rule="evenodd"/><path d="M180,177v5c0-1.68-.05-3.35-.14-5Z" fill="none" stroke="#0f1adb" stroke-miterlimit="10" fill-rule="evenodd"/><circle cx="221.5" cy="97.85" r="43.85" fill="#ff8b00"/><path d="M292,196.52V257.9a9.1,9.1,0,0,1-9.1,9.1H162.25A11.23,11.23,0,0,1,151,255.77V196.52c0-1.31,0-2.62.11-3.91a70.13,70.13,0,0,1,13.53-37.77c8-10.91,22.8-14.1,34.92-8.08a49.39,49.39,0,0,0,44.1-.13,27.48,27.48,0,0,1,34.49,8,70.13,70.13,0,0,1,13.7,38C291.94,193.9,292,195.21,292,196.52Z" fill="#ff8b00" fill-rule="evenodd"/><path d="M131.64,177.5c-.09,1.65-.14,3.32-.14,5v-5Z" fill="none" stroke="#0f1adb" stroke-miterlimit="10" fill-rule="evenodd"/><circle cx="90" cy="56" r="56" fill="#0f1adb"/><path d="M180,182v78.38A11.62,11.62,0,0,1,168.38,272h-154A14.34,14.34,0,0,1,0,257.66V182c0-1.68.05-3.35.14-5a89.49,89.49,0,0,1,17.28-48.23c10.23-13.92,29.11-18,44.58-10.32a63.1,63.1,0,0,0,56.33-.17,35.09,35.09,0,0,1,44,10.19A89.52,89.52,0,0,1,179.86,177C180,178.65,180,180.32,180,182Z" fill="#0f1adb" fill-rule="evenodd"/><path d="M131.64,177.5c-.09,1.65-.14,3.32-.14,5v-5Z" fill="none" stroke="#0f1adb" stroke-miterlimit="10" fill-rule="evenodd"/></g></g></svg>