<svg xmlns="http://www.w3.org/2000/svg" viewBox="0 0 286.97 269.69">
    <title>usage</title>
    <g id="Layer_2" data-name="Layer 2">
        <g id="Layer_1-2" data-name="Layer 1">
            <path d="M269.7,134.85A134.85,134.85,0,1,1,0,134C.45,60.89,59.86,1,133,0a134.26,134.26,0,0,1,65,15.66,4.33,4.33,0,0,1,1.72,6L135.71,133H267.84a1.86,1.86,0,0,1,1.86,1.86Z" fill="#b3b4b5" />
            <path d="M269.7,133h0v0Z" fill="#b3b4b5" />
            <path d="M287,122.15v0H157.41a2.56,2.56,0,0,1-2.22-3.83l62.74-109a2.56,2.56,0,0,1,3.52-.93A134.77,134.77,0,0,1,287,122.15Z" fill="#b3b4b5" />
        </g>
    </g>
</svg>